<svg xmlns="http://www.w3.org/2000/svg" width="8.251" height="8.251" viewBox="0 0 8.251 8.251">
  <path id="Icon_awesome-linkedin" data-name="Icon awesome-linkedin" d="M7.662,2.25H.588A.592.592,0,0,0,0,2.845V9.906a.592.592,0,0,0,.588.595H7.662a.593.593,0,0,0,.589-.595V2.845A.593.593,0,0,0,7.662,2.25ZM2.494,9.322H1.271V5.385H2.5V9.322ZM1.882,4.847a.709.709,0,1,1,.709-.709.709.709,0,0,1-.709.709Zm5.2,4.475H5.855V7.407c0-.457-.009-1.044-.635-1.044s-.735.5-.735,1.011V9.322H3.262V5.385H4.435v.538h.017A1.288,1.288,0,0,1,5.61,5.287c1.238,0,1.468.816,1.468,1.877Z" transform="translate(0 -2.25)" fill="#fff"/>
</svg>
