<svg xmlns="http://www.w3.org/2000/svg" width="11.063" height="8.985" viewBox="0 0 11.063 8.985">
  <path id="Icon_awesome-twitter" data-name="Icon awesome-twitter" d="M9.926,5.62c.007.1.007.2.007.295a6.407,6.407,0,0,1-6.451,6.451A6.407,6.407,0,0,1,0,11.348a4.691,4.691,0,0,0,.548.028,4.541,4.541,0,0,0,2.815-.969,2.271,2.271,0,0,1-2.12-1.572,2.859,2.859,0,0,0,.428.035,2.4,2.4,0,0,0,.6-.077A2.268,2.268,0,0,1,.449,6.568V6.54a2.283,2.283,0,0,0,1.025.288,2.271,2.271,0,0,1-.7-3.032A6.445,6.445,0,0,0,5.447,6.168a2.56,2.56,0,0,1-.056-.519A2.27,2.27,0,0,1,9.315,4.1a4.464,4.464,0,0,0,1.439-.548,2.261,2.261,0,0,1-1,1.249,4.545,4.545,0,0,0,1.306-.351A4.874,4.874,0,0,1,9.926,5.62Z" transform="translate(0 -3.381)" fill="#fff"/>
</svg>
