<svg xmlns="http://www.w3.org/2000/svg" width="8.591" height="10.388" viewBox="0 0 8.591 10.388">
  <path id="Icon_metro-youtube2" data-name="Icon metro-youtube2" d="M10.707,9.415v1.223q0,.388-.226.388a.372.372,0,0,1-.261-.128V9.154a.372.372,0,0,1,.261-.128q.226,0,.226.388Zm1.959.006v.267h-.522V9.421q0-.394.261-.394t.261.394Zm-5.6-1.264h.62V7.612H5.878v.545h.609v3.3h.58Zm1.669,3.3h.516V8.592H8.736v2.191q-.174.243-.33.243-.1,0-.122-.122a1.612,1.612,0,0,1-.006-.2V8.592H7.762v2.267a1.433,1.433,0,0,0,.046.423.312.312,0,0,0,.336.214.849.849,0,0,0,.591-.354v.313Zm2.487-.858V9.455a2.061,2.061,0,0,0-.052-.574.4.4,0,0,0-.412-.325.7.7,0,0,0-.539.313V7.612H9.7v3.843h.516v-.278a.719.719,0,0,0,.539.319.4.4,0,0,0,.412-.319A2.131,2.131,0,0,0,11.223,10.6Zm1.959-.058v-.075h-.528a2.87,2.87,0,0,1-.012.354.222.222,0,0,1-.232.209q-.267,0-.267-.4v-.5h1.038v-.6a1.15,1.15,0,0,0-.157-.672.792.792,0,0,0-1.235,0,1.118,1.118,0,0,0-.162.672v1a1.089,1.089,0,0,0,.168.672.744.744,0,0,0,.626.3.718.718,0,0,0,.748-.62,2.551,2.551,0,0,0,.012-.336ZM9.658,5.247V4.029q0-.4-.249-.4t-.249.4V5.247q0,.406.249.406t.249-.406ZM13.826,9.6a10.044,10.044,0,0,1-.151,2.029,1.1,1.1,0,0,1-.336.574,1.014,1.014,0,0,1-.591.267,31,31,0,0,1-3.217.122,31,31,0,0,1-3.217-.122,1.027,1.027,0,0,1-.594-.267,1.06,1.06,0,0,1-.333-.574A9.837,9.837,0,0,1,5.235,9.6a10.044,10.044,0,0,1,.151-2.029A1.1,1.1,0,0,1,5.722,7a1.051,1.051,0,0,1,.6-.272q1.061-.116,3.211-.116t3.217.116a1.089,1.089,0,0,1,.927.846A9.837,9.837,0,0,1,13.826,9.6ZM8.04,2.2h.591l-.7,2.313V6.087h-.58V4.516A9.816,9.816,0,0,0,7,3.287Q6.782,2.69,6.62,2.2h.614l.412,1.525Zm2.145,1.93V5.148a1.143,1.143,0,0,1-.162.684.78.78,0,0,1-1.223,0,1.159,1.159,0,0,1-.162-.684V4.134A1.13,1.13,0,0,1,8.8,3.456a.78.78,0,0,1,1.223,0,1.13,1.13,0,0,1,.162.678Zm1.942-.939V6.087H11.6V5.769a.834.834,0,0,1-.6.359.322.322,0,0,1-.342-.214,1.488,1.488,0,0,1-.046-.435V3.195h.528V5.322a1.523,1.523,0,0,0,.006.2q.017.128.122.128.157,0,.33-.249V3.195Z" transform="translate(-5.235 -2.204)" fill="#fff"/>
</svg>
